<?xml version="1.0" encoding="utf-8"?>
<!-- Generator: Adobe Illustrator 15.1.0, SVG Export Plug-In . SVG Version: 6.00 Build 0)  -->
<!DOCTYPE svg PUBLIC "-//W3C//DTD SVG 1.1//EN" "http://www.w3.org/Graphics/SVG/1.1/DTD/svg11.dtd">
<svg version="1.1" id="Layer_1" xmlns="http://www.w3.org/2000/svg" x="0px"
     y="0px"
     width="3900px" height="1500px" viewBox="0 0 3900 1500" enable-background="new 0 0 3900 1500" xml:space="preserve">
<g>
	<path fill="#FFFFFF" d="M1078.961,1L-0.13,1500h2819.588L3900,1H1078.961z M702.099,1304.841l-302.254,2.299L1213.203,181h298.332
		l-0.819-0.47L702.099,1304.841z M1301.313,1302.123l-210.214,0.129l105.979-571.281l284.262-396.823l-106.76,578.709L1904.456,181
		h298.332l-809.436,1126.174L1301.313,1302.123z M2710.313,1302.235l-544.354,0.463l147.991-203.739l542.517,1.048
		L2710.313,1302.235z M3034.114,847.465l-544.562,0.459l147.991-203.736l542.722,1.045L3034.114,847.465z M2749.989,367.064
		l-669.022,935.049l-302.253,0.139l806.085-1130.58l936.989,0.908l-143.417,196.492L2749.989,367.064z"/>
  <path fill="#FFFFFF" d="M1025.407,850.157"/>
</g>
</svg>
