<?xml version="1.0" encoding="utf-8"?>
<!-- Generator: Adobe Illustrator 15.1.0, SVG Export Plug-In . SVG Version: 6.00 Build 0)  -->
<!DOCTYPE svg PUBLIC "-//W3C//DTD SVG 1.1//EN" "http://www.w3.org/Graphics/SVG/1.1/DTD/svg11.dtd">
<svg version="1.1" id="Layer_1" xmlns="http://www.w3.org/2000/svg" xmlns:xlink="http://www.w3.org/1999/xlink" x="0px" y="0px"
	 width="1500px" height="1500px" viewBox="0 0 1500 1500" enable-background="new 0 0 1500 1500" xml:space="preserve">
<g>
	<defs>
		<rect id="SVGID_1_" x="-36.5" y="-53" width="1574" height="1574"/>
	</defs>
	<clipPath id="SVGID_2_">
		<use xlink:href="#SVGID_1_"  overflow="visible"/>
	</clipPath>
	<path clip-path="url(#SVGID_2_)" fill="#FFFFFF" d="M1441.767,384.468c-16.595-62.494-65.485-111.697-127.563-128.389
		c-112.514-30.35-563.703-30.35-563.703-30.35s-451.189,0-563.703,30.35c-62.076,16.692-110.968,65.895-127.563,128.389
		C29.083,497.709,29.083,734,29.083,734s0,236.282,30.15,349.531c16.595,62.485,65.487,111.689,127.563,128.397
		c112.514,30.342,563.703,30.342,563.703,30.342s451.189,0,563.703-30.342c62.078-16.708,110.969-65.912,127.563-128.397
		c30.15-113.249,30.15-349.531,30.15-349.531S1471.917,497.709,1441.767,384.468 M602.938,948.531V519.469l377.104,214.539
		L602.938,948.531z"/>
</g>
</svg>
