<?xml version="1.0" encoding="utf-8"?>
<!-- Generator: Adobe Illustrator 15.1.0, SVG Export Plug-In . SVG Version: 6.00 Build 0)  -->
<!DOCTYPE svg PUBLIC "-//W3C//DTD SVG 1.1//EN" "http://www.w3.org/Graphics/SVG/1.1/DTD/svg11.dtd">
<svg version="1.1" id="Layer_1" xmlns="http://www.w3.org/2000/svg" x="0px"
     y="0px"
     width="1500px" height="1500px" viewBox="0 0 1500 1500" enable-background="new 0 0 1500 1500" xml:space="preserve">
<g>
	<path fill="#FFFFFF" d="M750,163.232c192.25,0,215.019,0.731,290.939,4.197c70.197,3.203,108.326,14.933,133.693,24.791
		c33.607,13.06,57.595,28.667,82.793,53.86c25.191,25.191,40.792,49.18,53.854,82.784c9.854,25.374,21.589,63.5,24.79,133.693
		c3.467,75.925,4.197,98.697,4.197,290.943c0,192.25-0.73,215.024-4.197,290.939c-3.201,70.203-14.936,108.326-24.79,133.698
		c-13.063,33.603-28.663,57.597-53.854,82.788c-25.198,25.191-49.186,40.799-82.793,53.854
		c-25.367,9.861-63.496,21.589-133.693,24.796c-75.909,3.461-98.679,4.197-290.939,4.197s-215.035-0.736-290.94-4.197
		c-70.203-3.207-108.325-14.935-133.692-24.796c-33.607-13.056-57.602-28.663-82.793-53.854
		c-25.192-25.191-40.798-49.186-53.855-82.788c-9.86-25.372-21.588-63.495-24.796-133.691c-3.46-75.922-4.197-98.696-4.197-290.946
		c0-192.246,0.736-215.018,4.197-290.94c3.208-70.196,14.936-108.322,24.796-133.696c13.057-33.604,28.663-57.593,53.855-82.784
		c25.191-25.194,49.186-40.801,82.793-53.86c25.367-9.858,63.49-21.588,133.686-24.791C534.976,163.963,557.75,163.232,750,163.232
		 M750,33.5c-195.546,0-220.056,0.83-296.857,4.334C376.509,41.33,324.17,53.5,278.368,71.301
		c-47.346,18.4-87.495,43.02-127.524,83.046c-40.029,40.026-64.649,80.181-83.046,127.527
		c-17.803,45.799-29.971,98.135-33.47,174.776C30.824,533.44,30,557.959,30,753.5c0,195.546,0.824,220.063,4.329,296.857
		c3.499,76.634,15.667,128.973,33.47,174.774c18.397,47.341,43.017,87.495,83.046,127.524
		c40.029,40.028,80.178,64.648,127.524,83.045c45.802,17.804,98.141,29.971,174.775,33.471
		c76.801,3.504,101.311,4.328,296.857,4.328c195.541,0,220.057-0.824,296.851-4.328c76.641-3.5,128.979-15.667,174.776-33.471
		c47.346-18.396,87.5-43.017,127.523-83.045c40.027-40.029,64.649-80.178,83.046-127.524
		c17.802-45.802,29.971-98.141,33.476-174.774c3.499-76.795,4.328-101.312,4.328-296.857c0-195.541-0.829-220.06-4.328-296.851
		c-3.505-76.641-15.674-128.977-33.476-174.776c-18.396-47.346-43.019-87.5-83.046-127.527
		c-40.023-40.026-80.178-64.646-127.523-83.046c-45.797-17.8-98.136-29.971-174.776-33.467C970.057,34.33,945.541,33.5,750,33.5z
		 M750,383.771c-204.198,0-369.734,165.533-369.734,369.729c0,204.198,165.536,369.734,369.734,369.734
		c204.191,0,369.728-165.536,369.728-369.734C1119.728,549.305,954.191,383.771,750,383.771z M750,993.501
		c-132.55,0-240.001-107.451-240.001-240.001c0-132.545,107.451-240,240.001-240s239.996,107.455,239.996,240
		C989.996,886.05,882.55,993.501,750,993.501z M1220.736,369.162c0,47.72-38.682,86.403-86.401,86.403
		c-47.714,0-86.396-38.683-86.396-86.403c0-47.716,38.683-86.399,86.396-86.399C1182.055,282.763,1220.736,321.446,1220.736,369.162
		z"/>
</g>
</svg>
